<svg width="351" height="88" viewBox="0 0 351 88" fill="none" xmlns="http://www.w3.org/2000/svg">
<g id="Group">
<path id="Vector" d="M88.0741 88C87.1856 88 86.4182 87.6741 85.772 87.0222C85.1258 86.3703 84.8027 85.5963 84.8027 84.7V5.74442C84.8027 4.84813 85.1258 4.07405 85.772 3.4222C86.4182 2.77035 87.1856 2.44443 88.0741 2.44443H112.791C113.679 2.44443 114.447 2.77035 115.093 3.4222C115.739 4.07405 116.062 4.84813 116.062 5.74442V84.7C116.062 85.5963 115.739 86.3703 115.093 87.0222C114.447 87.6741 113.679 88 112.791 88H88.0741Z" fill="var(--fill-0, white)"/>
<path id="Vector_2" d="M3.27132 86.7778C2.38281 86.7778 1.61546 86.4518 0.969279 85.8C0.323093 85.1481 0 84.3741 0 83.4778V4.52221C0 3.62591 0.323093 2.85184 0.969279 2.19999C1.61546 1.54814 2.38281 1.22221 3.27132 1.22221H26.4128C27.3013 1.22221 28.0687 1.54814 28.7149 2.19999C29.3611 2.85184 29.6842 3.62591 29.6842 4.52221V28.7222L43.3752 3.9111C43.7791 3.25925 44.358 2.64814 45.1388 2.07777C45.9061 1.5074 46.9292 1.22221 48.2216 1.22221H74.9979C75.7249 1.22221 76.3441 1.49382 76.8826 2.00987C77.4077 2.5395 77.6634 3.16419 77.6634 3.9111C77.6634 4.39999 77.5423 4.84814 77.3 5.25554L55.4912 42.1667L79.3597 82.7444C79.602 83.0704 79.7232 83.5185 79.7232 84.0889C79.7232 84.8222 79.4539 85.4605 78.9423 85.9901C78.4173 86.5197 77.7981 86.7778 77.0576 86.7778H49.4332C47.8177 86.7778 46.6196 86.3975 45.8657 85.6099C45.0984 84.8358 44.6272 84.2926 44.4656 83.9667L29.6842 57.3222V83.4778C29.6842 84.3741 29.3611 85.1481 28.7149 85.8C28.0687 86.4518 27.3013 86.7778 26.4128 86.7778H3.27132Z" fill="var(--fill-0, white)"/>
<path id="Vector_3" d="M161.304 88C153.55 88 146.684 86.8593 140.707 84.5778C134.73 82.2963 129.978 78.7111 126.464 73.8222C122.95 68.9333 121.025 62.6185 120.716 54.8778C120.635 51.537 120.594 47.9519 120.594 44.1222C120.594 40.2926 120.635 36.6259 120.716 33.1222C121.039 25.5444 122.991 19.3111 126.585 14.4222C130.18 9.53333 134.986 5.90741 141.003 3.54444C147.021 1.18148 153.792 0 161.304 0C166.474 0 171.455 0.597531 176.274 1.76543C181.08 2.94691 185.415 4.80741 189.292 7.33333C193.169 9.85926 196.252 13.1049 198.554 17.0432C200.856 20.9951 202.041 25.7481 202.135 31.2889C202.135 32.0222 201.866 32.6605 201.354 33.1901C200.829 33.7198 200.21 33.9778 199.469 33.9778H174.753C173.46 33.9778 172.505 33.7198 171.899 33.1901C171.293 32.6605 170.755 31.7506 170.27 30.4333C169.381 27.8259 168.17 26.0741 166.635 25.1778C165.1 24.2815 163.283 23.8333 161.183 23.8333C158.517 23.8333 156.39 24.5531 154.815 25.979C153.24 27.4049 152.365 29.9988 152.204 33.7333C151.961 40.4148 151.961 47.2593 152.204 54.2667C152.365 58.0148 153.24 60.6086 154.815 62.021C156.39 63.4469 158.517 64.1667 161.183 64.1667C163.283 64.1667 165.114 63.6778 166.689 62.7C168.264 61.7222 169.449 60.0111 170.27 57.5667C170.674 56.1815 171.199 55.2444 171.845 54.7556C172.491 54.2667 173.46 54.0222 174.753 54.0222H199.469C200.196 54.0222 200.816 54.2938 201.354 54.8099C201.879 55.3395 202.135 55.9642 202.135 56.7111C202.054 62.2518 200.87 67.0049 198.554 70.9568C196.252 74.9086 193.169 78.1543 189.292 80.6667C185.415 83.1926 181.067 85.0531 176.274 86.221C171.455 87.4025 166.474 88 161.304 88Z" fill="var(--fill-0, white)"/>
<path id="Vector_4" d="M273.713 82.7444L249.845 42.1667L271.654 5.25554C271.896 4.84814 272.017 4.39999 272.017 3.9111C272.017 3.17777 271.761 2.55308 271.236 2.02345C270.711 1.49382 270.079 1.22221 269.352 1.22221H242.575C241.283 1.22221 240.26 1.5074 239.493 2.07777C238.725 2.64814 238.133 3.25925 237.729 3.9111L225.613 25.8704L224.038 28.7222V4.52221C224.038 3.62591 223.715 2.85184 223.069 2.19999C222.422 1.54814 221.655 1.22221 220.767 1.22221H197.625C196.737 1.22221 195.969 1.54814 195.323 2.19999C195.242 2.29505 195.162 2.37653 195.081 2.47159C195 2.56666 194.933 2.66172 194.879 2.75678C194.811 2.85184 194.758 2.96048 194.704 3.05554C194.65 3.16419 194.61 3.25925 194.569 3.36789C198.742 6.26048 202.162 9.92715 204.706 14.3C207.466 19.0531 208.92 24.7432 209.014 31.2074C209.014 33.4481 208.179 35.4852 206.658 37.0333C205.124 38.5679 203.104 39.4099 200.964 39.4099H194.354V48.5901H200.964C203.104 48.5901 205.124 49.4321 206.645 50.9666C208.179 52.5284 209.014 54.5654 209.014 56.7111C208.92 63.2568 207.466 68.9469 204.706 73.7C202.162 78.0728 198.742 81.7395 194.569 84.6321C194.61 84.7407 194.65 84.8494 194.704 84.9444C194.812 85.1481 194.933 85.3518 195.081 85.5284C195.162 85.6234 195.242 85.7049 195.323 85.8C195.969 86.4518 196.737 86.7778 197.625 86.7778H220.767C221.655 86.7778 222.422 86.4518 223.069 85.8C223.715 85.1481 224.038 84.3741 224.038 83.4778V57.3222L225.613 60.1605L238.819 83.9667C238.981 84.2926 239.452 84.8494 240.22 85.6234C240.987 86.3975 242.172 86.7778 243.787 86.7778H271.411C272.138 86.7778 272.771 86.5197 273.296 85.9901C273.821 85.4605 274.077 84.8222 274.077 84.0889C274.077 83.5185 273.956 83.0704 273.713 82.7444Z" fill="var(--fill-0, white)"/>
<path id="Vector_5" d="M310.775 88C301.809 88 294.418 86.7778 288.603 84.3333C282.787 81.8889 278.425 78.6704 275.517 74.6778C272.61 70.6852 271.075 66.4481 270.913 61.9667C270.913 61.2333 271.169 60.6086 271.694 60.0654C272.219 59.5358 272.838 59.2778 273.565 59.2778H296.586C297.878 59.2778 298.861 59.4543 299.561 59.821C300.247 60.1876 300.988 60.7037 301.809 61.342C302.617 61.9123 303.438 62.4284 304.286 62.863C305.134 63.3111 306.103 63.637 307.194 63.8407C308.284 64.0444 309.469 64.1531 310.775 64.1531C313.521 64.1531 315.716 63.8407 317.371 63.2296C319.027 62.6185 319.862 61.7901 319.862 60.7309C319.862 59.7531 319.391 58.9383 318.462 58.2864C317.533 57.6346 315.931 57.0506 313.669 56.521C311.408 55.9914 308.257 55.4753 304.219 55C297.838 54.1037 292.305 52.5963 287.62 50.4778C282.935 48.3593 279.314 45.4531 276.783 41.7321C274.238 38.0247 272.973 33.4753 272.973 28.0975C272.973 22.5568 274.521 17.6679 277.631 13.4309C280.741 9.19383 285.062 5.89383 290.595 3.53086C296.128 1.18148 302.576 0 309.927 0C315.985 0 321.356 0.787654 326.041 2.37654C330.726 3.96543 334.684 6.04321 337.915 8.60988C341.146 11.1765 343.609 13.9333 345.305 16.8667C347.002 19.8 347.89 22.6111 347.971 25.3C347.971 26.0333 347.702 26.6716 347.19 27.2012C346.665 27.7309 346.073 27.9889 345.427 27.9889H321.195C320.064 27.9889 319.148 27.8259 318.475 27.5C317.789 27.1741 317.075 26.6852 316.348 26.0333C315.944 25.6259 315.19 25.1642 314.1 24.621C313.01 24.0914 311.623 23.8333 309.913 23.8333C307.894 23.8333 306.413 24.1457 305.498 24.7568C304.569 25.3679 304.098 26.2099 304.098 27.2556C304.098 27.9889 304.461 28.6815 305.188 29.3333C305.915 29.9852 307.248 30.5556 309.186 31.0444C311.125 31.5333 313.912 32.0222 317.546 32.5111C325.624 33.4889 332.099 35.0642 336.999 37.2099C341.886 39.3691 345.44 42.2481 347.661 45.8333C349.883 49.4185 351 53.8593 351 59.1556C351 65.1037 349.236 70.237 345.723 74.5556C342.209 78.8741 337.417 82.1876 331.359 84.5099C325.301 86.8321 318.448 88 310.775 88Z" fill="var(--fill-0, white)"/>
</g>
</svg>
