<svg xmlns="http://www.w3.org/2000/svg" width="24" height="24" viewBox="0 0 16 16" fill="none">
  <path
    d="M8 9.02344C9.49038 9.02344 10.9417 9.44425 12.0869 10.207C13.3756 11.0661 14.1954 12.2896 14.458 13.7461C14.5175 14.0752 14.4366 14.3997 14.2383 14.6367C14.1484 14.7445 14.0357 14.8309 13.9082 14.8896C13.7805 14.9484 13.6405 14.9784 13.5 14.9766H2.5L2.39453 14.9717C2.29041 14.9614 2.18829 14.9345 2.09277 14.8906C1.96512 14.8319 1.85177 14.7446 1.76172 14.6367C1.5637 14.3998 1.48362 14.0759 1.54297 13.7471C1.80553 12.2906 2.62441 11.0665 3.91309 10.207C5.05825 9.4439 6.5096 9.02347 8 9.02344ZM8 1.02344C8.93131 1.02344 9.77446 1.38265 10.3779 2.03418C10.9888 2.69377 11.2873 3.58184 11.2168 4.53516C11.0765 6.43571 9.63265 7.97656 8 7.97656C6.3674 7.97645 4.92128 6.43493 4.7832 4.53418C4.71374 3.57211 5.01019 2.68177 5.61719 2.02734C6.21773 1.38008 7.06374 1.02348 8 1.02344Z"
    fill="#232321"
    stroke="#232321"
    stroke-width="0.046875"
  />
</svg>
